<svg xmlns="http://www.w3.org/2000/svg" viewBox="0 0 1000 500" role="img" aria-labelledby="world-map-title world-map-desc">
  <title id="world-map-title">Static world map</title>
  <desc id="world-map-desc">A clean no-label world map background with light land and subtle country-border linework.</desc>
  <rect width="1000" height="500" fill="#f8fafc"/>
  <g opacity="0.45" fill="none" stroke="#e7edf3" stroke-width="0.8">
    <path d="M0 125H1000M0 250H1000M0 375H1000"/>
    <path d="M166.7 0V500M333.3 0V500M500 0V500M666.7 0V500M833.3 0V500"/>
  </g>
  <g fill="#eef3f7" stroke="#c8d6e2" stroke-width="1.1" stroke-linejoin="round" stroke-linecap="round">
    <path d="M74 118l23-19 33-11 43 4 34 17 27 4 26 24 30 9 29 28 16 33-8 28-33 12-18 29-28 21-19 43-34 15-23-20-8-39-24-18-18-31-36-9-24-25-32-14-7-39z"/>
    <path d="M111 75l39-21 58-11 70 8 63 23 32 27-25 23-67-5-61 13-51-5-43-17z"/>
    <path d="M251 301l28 11 24 32 22 38 34 34-5 39-33 45-49-20-27-44-25-45 6-48z"/>
    <path d="M458 88l45-8 50 12 33 24 42-4 31 18 15 29-24 32-48-8-35 18-43-8-31 13-53-12-31-29 15-42z"/>
    <path d="M505 202l48-1 43 25 48 23 48 5 47 34 27 50-11 58-39 59-52 11-42-28-26-40-34-21-28-45-43-31-8-45z"/>
    <path d="M646 89l72-17 88 5 81 22 70 32 44 38 17 41-28 42-72 22-79-8-62-36-54 12-56-31-39-49-22-42z"/>
    <path d="M765 235l43 17 17 33-22 37-46-8-30-34z"/>
    <path d="M840 272l30 8 21 28-15 29-39-9-18-28z"/>
    <path d="M872 329l55 15 54 37 23 47-35 44-68-11-47-40z"/>
    <path d="M923 247l31 7 24 23-11 29-37-6-21-25z"/>
    <path d="M565 103l22-19 38 8 12 23-28 18-39-6z"/>
    <path d="M493 112l21-16 29 5 18 20-20 22-39-2z"/>
  </g>
  <g fill="none" stroke="#d7e1ea" stroke-width="0.85" stroke-linecap="round" stroke-linejoin="round" opacity="0.92">
    <path d="M107 100l18 48 41 15 36 37 51 17 37 29"/>
    <path d="M163 129l-15 54-37 27"/>
    <path d="M212 139l-12 51 23 54"/>
    <path d="M260 151l-20 47 10 70"/>
    <path d="M294 178l-8 52 27 44"/>
    <path d="M240 316l10 58-22 47"/>
    <path d="M281 319l-5 63 28 83"/>
    <path d="M320 372l-23 55 18 52"/>
    <path d="M426 124l45 17 51-5 44 15 65-16"/>
    <path d="M489 96l16 54-17 55"/>
    <path d="M543 94l-5 49 27 59"/>
    <path d="M585 117l-10 60 35 11 40-20"/>
    <path d="M529 212l-29 39 38 31 5 51"/>
    <path d="M584 219l44 39 15 70 42 49"/>
    <path d="M671 260l37 29 11 54 31 41"/>
    <path d="M680 92l49 45 74 14 61 42 85 26"/>
    <path d="M740 76l28 66-7 87"/>
    <path d="M815 82l-28 61 26 83"/>
    <path d="M899 105l-14 66 45 78"/>
    <path d="M747 251l37 27 22 36"/>
    <path d="M873 344l28 42 5 62"/>
    <path d="M929 346l12 53 39 41"/>
    <path d="M932 255l19 20 17 21"/>
  </g>
</svg>
