<svg xmlns="http://www.w3.org/2000/svg" viewBox="0 0 1120 560" role="img" aria-labelledby="world-map-title world-map-desc">
  <title id="world-map-title">Simplified geographic world map</title>
  <desc id="world-map-desc">A lightweight SVG world map with recognizable continent coastlines and subtle country border geometry.</desc>
  <rect width="1120" height="560" fill="#f8fafc"/>
  <g fill="#e5ebf2" stroke="#ccd8e4" stroke-width="1.4" stroke-linejoin="round" stroke-linecap="round">
    <path d="M79 139l36-32 57-15 51 10 44 23 36 39 41 16 35 39-3 33-34 13-30 29-37 19-21 41-29-2-15-42-37-19-24-31-44-8-31-31-31-10-20-36z"/>
    <path d="M220 56l58-22 77 3 55 28 15 31-37 22-67-2-58 21-48-24z"/>
    <path d="M279 310l44 24 28 48 35 41-15 65-46 45-45-21-20-58-26-47 16-49z"/>
    <path d="M519 85l47 3 37 25 34-3 25 24-24 32-51-6-33 19-48-13-41 7-29-21 35-36z"/>
    <path d="M548 174l58 18 54 44 54 21 35 52-16 72-42 69-58 4-43-47-36-37-37-63-37-47z"/>
    <path d="M647 94l76-26 108 9 96 31 81 31 49 52-27 58-83 30-92-20-65-36-66 15-62-45-44-42z"/>
    <path d="M793 237l57 18 15 50-41 35-45-17-27-54z"/>
    <path d="M939 338l66 21 46 55-33 52-70-8-47-43z"/>
    <path d="M1020 295l20-8 17 19-18 21-22-8z"/>
    <path d="M915 251l26 4 20 18-9 25-31-10z"/>
    <path d="M501 122l17-16 30 10-9 22-28 5z"/>
  </g>
  <g fill="none" stroke="#d7e1ea" stroke-width="0.95" stroke-linecap="round" opacity="0.85">
    <path d="M142 111l24 48 49 10 42 37 58 17 31 29"/>
    <path d="M213 137l-18 60-44 34"/>
    <path d="M250 175l-20 48 8 69"/>
    <path d="M305 182l-8 52 29 45"/>
    <path d="M300 333l4 63-27 53"/>
    <path d="M333 359l-20 55 21 70"/>
    <path d="M490 119l56 17 57-12"/>
    <path d="M546 141l-5 42 43 7 38-16"/>
    <path d="M574 198l-31 36 42 30 1 63"/>
    <path d="M620 214l45 34 12 73 42 43"/>
    <path d="M659 119l60 34 78 7 68 45 87 28"/>
    <path d="M736 88l36 63-4 72"/>
    <path d="M851 102l-35 56 25 82"/>
    <path d="M931 121l-15 68 47 77"/>
    <path d="M780 260l45 20 27 40"/>
    <path d="M970 357l10 47 45 42"/>
  </g>
</svg>
